<svg width="20" height="20" viewBox="0 0 16 16" fill="none" xmlns="http://www.w3.org/2000/svg">
<path d="M15.9062 15.5938L11.25 10.9375C12.3125 9.78125 12.9688 8.21875 12.9688 6.5C12.9688 2.9375 10.0312 0 6.46875 0C2.875 0 0 2.9375 0 6.5C0 10.0938 2.90625 13 6.46875 13C8.15625 13 9.71875 12.3438 10.875 11.2812L15.5312 15.9375C15.5938 16 15.6562 16 15.7188 16C15.75 16 15.8438 16 15.875 15.9375C16 15.8438 16 15.6875 15.9062 15.5938ZM6.46875 12.5C3.15625 12.5 0.46875 9.8125 0.46875 6.5C0.46875 3.21875 3.15625 0.5 6.46875 0.5C9.75 0.5 12.4688 3.21875 12.4688 6.5C12.4688 9.8125 9.78125 12.5 6.46875 12.5Z" fill="black"/>
</svg>
